<svg xmlns="http://www.w3.org/2000/svg" xmlns:xlink="http://www.w3.org/1999/xlink" xml:space="preserve" version="1.1" style="shape-rendering:geometricPrecision;text-rendering:geometricPrecision;image-rendering:optimizeQuality;" viewBox="0 0 333.33 416.66249999999997" x="0px" y="0px" fill-rule="evenodd" clip-rule="evenodd"><defs><style type="text/css">
   
    .fil0 {fill:white}
   
  </style></defs><g><path class="fil0" d="M16.06 16.06c8.49,-8.49 19.67,-12.73 30.84,-12.73 11.17,0 22.35,4.24 30.84,12.73l88.92 88.92 88.92 -88.92c8.49,-8.49 19.67,-12.73 30.84,-12.73 11.17,0 22.35,4.24 30.84,12.73 8.49,8.49 12.73,19.67 12.73,30.84 0,11.17 -4.24,22.35 -12.73,30.84l-88.92 88.92 88.92 88.92c8.49,8.49 12.73,19.67 12.73,30.84 0,11.17 -4.24,22.35 -12.73,30.84 -8.49,8.49 -19.67,12.73 -30.84,12.73 -11.17,0 -22.35,-4.24 -30.84,-12.73l-88.92 -88.92 -88.92 88.92c-8.49,8.49 -19.67,12.73 -30.84,12.73 -11.17,0 -22.35,-4.24 -30.84,-12.73 -8.49,-8.49 -12.73,-19.67 -12.73,-30.84 0,-11.17 4.24,-22.35 12.73,-30.84l88.92 -88.92 -88.92 -88.92c-8.49,-8.49 -12.73,-19.67 -12.73,-30.84 0,-11.17 4.24,-22.35 12.73,-30.84z"/></g><text x="0" y="348.33" fill="#000000" font-size="5px" font-weight="bold" font-family="'Helvetica Neue', Helvetica, Arial-Unicode, Arial, Sans-serif">Created by SUBAIDA</text><text x="0" y="353.33" fill="#000000" font-size="5px" font-weight="bold" font-family="'Helvetica Neue', Helvetica, Arial-Unicode, Arial, Sans-serif">from the Noun Project</text></svg>